<svg width="20" height="20" viewBox="0 0 20 20" fill="none" xmlns="http://www.w3.org/2000/svg">
<g clip-path="url(#clip0_6_32)">
<path d="M0 16.25C0 16.7473 0.197544 17.2242 0.549175 17.5758C0.900805 17.9275 1.37772 18.125 1.875 18.125H18.125C18.6223 18.125 19.0992 17.9275 19.4508 17.5758C19.8025 17.2242 20 16.7473 20 16.25V7.5C20 7.00272 19.8025 6.52581 19.4508 6.17417C19.0992 5.82254 18.6223 5.625 18.125 5.625H1.875C1.37772 5.625 0.900805 5.82254 0.549175 6.17417C0.197544 6.52581 0 7.00272 0 7.5L0 16.25ZM2.5 3.75C2.5 3.91576 2.56585 4.07473 2.68306 4.19194C2.80027 4.30915 2.95924 4.375 3.125 4.375H16.875C17.0408 4.375 17.1997 4.30915 17.3169 4.19194C17.4342 4.07473 17.5 3.91576 17.5 3.75C17.5 3.58424 17.4342 3.42527 17.3169 3.30806C17.1997 3.19085 17.0408 3.125 16.875 3.125H3.125C2.95924 3.125 2.80027 3.19085 2.68306 3.30806C2.56585 3.42527 2.5 3.58424 2.5 3.75ZM5 1.25C5 1.41576 5.06585 1.57473 5.18306 1.69194C5.30027 1.80915 5.45924 1.875 5.625 1.875H14.375C14.5408 1.875 14.6997 1.80915 14.8169 1.69194C14.9342 1.57473 15 1.41576 15 1.25C15 1.08424 14.9342 0.925268 14.8169 0.808058C14.6997 0.690848 14.5408 0.625 14.375 0.625H5.625C5.45924 0.625 5.30027 0.690848 5.18306 0.808058C5.06585 0.925268 5 1.08424 5 1.25Z" fill="#699BF7"/>
</g>
<defs>
<clipPath id="clip0_6_32">
<rect width="20" height="20" fill="white"/>
</clipPath>
</defs>
</svg>
