<svg width="40" height="40" viewBox="0 0 40 40" fill="none" xmlns="http://www.w3.org/2000/svg">
<path d="M34 7.5C34 7.10218 33.842 6.72064 33.5607 6.43934C33.2794 6.15804 32.8978 6 32.5 6C32.1022 6 31.7206 6.15804 31.4393 6.43934C31.158 6.72064 31 7.10218 31 7.5V32.5C31 32.8978 31.158 33.2794 31.4393 33.5607C31.7206 33.842 32.1022 34 32.5 34C32.8978 34 33.2794 33.842 33.5607 33.5607C33.842 33.2794 34 32.8978 34 32.5V7.5Z" fill="#699BF7"/>
<path d="M6 8.80199C6.00011 8.34962 6.12297 7.90576 6.35547 7.51771C6.58797 7.12966 6.9214 6.81197 7.32023 6.59849C7.71906 6.38502 8.16834 6.28376 8.62019 6.3055C9.07204 6.32725 9.50952 6.47119 9.886 6.72199L26.682 17.92C27.0244 18.1483 27.3051 18.4576 27.4993 18.8204C27.6935 19.1833 27.7951 19.5885 27.7951 20C27.7951 20.4115 27.6935 20.8167 27.4993 21.1795C27.3051 21.5424 27.0244 21.8517 26.682 22.08L9.886 33.28C9.50937 33.5309 9.07171 33.6748 8.61969 33.6965C8.16767 33.7182 7.71825 33.6167 7.31935 33.403C6.92046 33.1893 6.58705 32.8713 6.3547 32.483C6.12234 32.0946 5.99975 31.6505 6 31.198V8.79999V8.80199Z" fill="#699BF7"/>
</svg>
