<svg width="8" height="8" viewBox="0 0 8 8" fill="none" xmlns="http://www.w3.org/2000/svg">
<path fill-rule="evenodd" clip-rule="evenodd" d="M4 6.47619C4.65673 6.47619 5.28656 6.21531 5.75093 5.75093C6.21531 5.28656 6.47619 4.65673 6.47619 4C6.47619 3.34327 6.21531 2.71345 5.75093 2.24907C5.28656 1.78469 4.65673 1.52381 4 1.52381C3.34327 1.52381 2.71345 1.78469 2.24907 2.24907C1.78469 2.71345 1.52381 3.34327 1.52381 4C1.52381 4.65673 1.78469 5.28656 2.24907 5.75093C2.71345 6.21531 3.34327 6.47619 4 6.47619ZM4 8C4.52529 8 5.04543 7.89654 5.53073 7.69552C6.01604 7.4945 6.45699 7.19986 6.82843 6.82843C7.19986 6.45699 7.4945 6.01604 7.69552 5.53073C7.89654 5.04543 8 4.52529 8 4C8 3.47471 7.89654 2.95457 7.69552 2.46927C7.4945 1.98396 7.19986 1.54301 6.82843 1.17157C6.45699 0.800138 6.01604 0.505501 5.53073 0.304482C5.04543 0.103463 4.52529 -7.82739e-09 4 0C2.93913 1.58081e-08 1.92172 0.421427 1.17157 1.17157C0.421427 1.92172 0 2.93913 0 4C0 5.06087 0.421427 6.07828 1.17157 6.82843C1.92172 7.57857 2.93913 8 4 8Z" fill="#699BF7"/>
</svg>
