<svg width="63" height="63" viewBox="0 0 63 63" fill="none" xmlns="http://www.w3.org/2000/svg">
<path d="M31.5 3.9375C16.2791 3.9375 3.9375 16.2791 3.9375 31.5C3.9375 46.7209 16.2791 59.0625 31.5 59.0625C46.7209 59.0625 59.0625 46.7209 59.0625 31.5C59.0625 16.2791 46.7209 3.9375 31.5 3.9375ZM26.5781 40.8516C26.5781 41.1223 26.3566 41.3438 26.0859 41.3438H23.1328C22.8621 41.3438 22.6406 41.1223 22.6406 40.8516V22.1484C22.6406 21.8777 22.8621 21.6562 23.1328 21.6562H26.0859C26.3566 21.6562 26.5781 21.8777 26.5781 22.1484V40.8516ZM40.3594 40.8516C40.3594 41.1223 40.1379 41.3438 39.8672 41.3438H36.9141C36.6434 41.3438 36.4219 41.1223 36.4219 40.8516V22.1484C36.4219 21.8777 36.6434 21.6562 36.9141 21.6562H39.8672C40.1379 21.6562 40.3594 21.8777 40.3594 22.1484V40.8516Z" fill="#699BF7"/>
</svg>
