<svg width="63" height="63" viewBox="0 0 63 63" fill="none" xmlns="http://www.w3.org/2000/svg">
<path d="M31.5 0C14.1047 0 0 14.1047 0 31.5C0 48.8953 14.1047 63 31.5 63C48.8953 63 63 48.8953 63 31.5C63 14.1047 48.8953 0 31.5 0ZM41.632 31.9852L26.2758 43.1578C26.1916 43.2183 26.0924 43.2544 25.989 43.2622C25.8856 43.27 25.7821 43.2491 25.6898 43.2019C25.5975 43.1546 25.52 43.0829 25.4659 42.9945C25.4117 42.9061 25.383 42.8045 25.3828 42.7008V20.3695C25.3825 20.2657 25.4109 20.1637 25.465 20.075C25.519 19.9863 25.5966 19.9143 25.689 19.867C25.7815 19.8196 25.8853 19.7988 25.9888 19.8069C26.0924 19.8149 26.1917 19.8515 26.2758 19.9125L41.632 31.0781C41.7046 31.1294 41.7638 31.1974 41.8046 31.2763C41.8455 31.3552 41.8668 31.4428 41.8668 31.5316C41.8668 31.6205 41.8455 31.7081 41.8046 31.787C41.7638 31.8659 41.7046 31.9339 41.632 31.9852Z" fill="#699BF7"/>
</svg>
