<svg width="40" height="40" viewBox="0 0 40 40" fill="none" xmlns="http://www.w3.org/2000/svg">
<path d="M5.5 32.5C5.5 32.8978 5.65804 33.2794 5.93934 33.5607C6.22064 33.842 6.60218 34 7 34C7.39782 34 7.77936 33.842 8.06066 33.5607C8.34196 33.2794 8.5 32.8978 8.5 32.5V7.5C8.5 7.10218 8.34196 6.72064 8.06066 6.43934C7.77936 6.15804 7.39782 6 7 6C6.60218 6 6.22064 6.15804 5.93934 6.43934C5.65804 6.72064 5.5 7.10218 5.5 7.5V32.5Z" fill="#699BF7"/>
<path d="M33.5 31.198C33.4999 31.6504 33.377 32.0942 33.1445 32.4823C32.912 32.8703 32.5786 33.188 32.1798 33.4015C31.7809 33.615 31.3316 33.7162 30.8798 33.6945C30.4279 33.6727 29.9905 33.5288 29.614 33.278L12.818 22.08C12.4756 21.8517 12.1949 21.5424 12.0007 21.1795C11.8065 20.8167 11.7049 20.4115 11.7049 20C11.7049 19.5885 11.8065 19.1833 12.0007 18.8204C12.1949 18.4576 12.4756 18.1483 12.818 17.92L29.614 6.72199C29.9905 6.47119 30.4279 6.32725 30.8798 6.3055C31.3316 6.28376 31.7809 6.38502 32.1798 6.59849C32.5786 6.81197 32.912 7.12966 33.1445 7.51771C33.377 7.90576 33.4999 8.34962 33.5 8.80199V31.2V31.198Z" fill="#699BF7"/>
</svg>
